<?xml version="1.0" standalone="no"?><!DOCTYPE svg PUBLIC "-//W3C//DTD SVG 1.1//EN" "http://www.w3.org/Graphics/SVG/1.1/DTD/svg11.dtd"><svg t="1496068215896" class="icon" style="" viewBox="0 0 1024 1024" version="1.1" xmlns="http://www.w3.org/2000/svg" p-id="1288" xmlns:xlink="http://www.w3.org/1999/xlink" width="200" height="200"><defs><style type="text/css"></style></defs><path d="M722.9 281.1l-82.3 164.6c-8.6 17.2-26.2 28.1-45.5 28.1H429c-19.3 0-36.9-10.9-45.5-28.1l-82.3-164.6c-3.5-7.1-5.4-14.9-5.4-22.8V117.7c0-28.1 22.8-50.9 50.9-50.9h330.7c28.1 0 50.9 22.8 50.9 50.9v140.6c-0.1 7.9-1.9 15.7-5.4 22.8z" fill="#E42D6C" p-id="1289"></path><path d="M512 677.4m-279.8 0a279.8 279.8 0 1 0 559.6 0 279.8 279.8 0 1 0-559.6 0Z" fill="#F9D00E" p-id="1290"></path><path d="M512 469.6c-112.4 0-203.5 91.1-203.5 203.5S399.6 876.6 512 876.6s203.5-91.1 203.5-203.5S624.4 469.6 512 469.6z" fill="#ECB408" p-id="1291"></path><path d="M518.4 326.3c-6.3 0-11.5-5.1-11.5-11.5V149.5c0-6.3 5.1-11.5 11.5-11.5 6.3 0 11.5 5.1 11.5 11.5v165.4c-0.1 6.3-5.2 11.4-11.5 11.4z" fill="#FFFEFF" p-id="1292"></path><path d="M605.4 492.4L397.8 841.6c32.6 22.1 71.8 35 114.2 35 112.4 0 203.5-91.1 203.5-203.5 0-78.7-44.7-146.8-110.1-180.7z" fill="#FCCC44" p-id="1293"></path><path d="M512 888.1c-118.5 0-215-96.4-215-215 0-118.5 96.4-215 215-215 118.5 0 215 96.4 215 215s-96.5 215-215 215z m0-407c-105.9 0-192.1 86.2-192.1 192.1s86.2 192 192.1 192S704.1 779 704.1 673.1s-86.2-192-192.1-192z" fill="#D19D0B" p-id="1294"></path><path d="M529.1 564.3v218h-35.7V607.4c-13.2 12-29.8 20.9-49.8 26.6v-35.4c9.6-2.4 20.1-6.7 31.4-12.8 10.8-6.5 19.9-13.6 27.2-21.4h26.9z" fill="#D19D0B" p-id="1295"></path><path d="M541.8 564.3v218h-35.7V607.4c-13.2 12-29.8 20.9-49.8 26.6v-35.4c9.6-2.4 20-6.7 31.4-12.8 10.8-6.5 19.9-13.6 27.2-21.4h26.9z" fill="#FFFEFF" p-id="1296"></path></svg>