<?xml version="1.0" standalone="no"?><!DOCTYPE svg PUBLIC "-//W3C//DTD SVG 1.1//EN" "http://www.w3.org/Graphics/SVG/1.1/DTD/svg11.dtd"><svg t="1496069057494" class="icon" style="" viewBox="0 0 1024 1024" version="1.1" xmlns="http://www.w3.org/2000/svg" p-id="1518" xmlns:xlink="http://www.w3.org/1999/xlink" width="200" height="200"><defs><style type="text/css"></style></defs><path d="M724.1 279.5l-82.8 165.6c-8.7 17.3-26.4 28.3-45.8 28.3h-167c-19.4 0-37.1-11-45.8-28.3l-82.8-165.6c-3.6-7.1-5.4-14.9-5.4-22.9V115.1c0-28.3 22.9-51.2 51.2-51.2h332.7c28.3 0 51.2 22.9 51.2 51.2v141.5c-0.1 7.9-1.9 15.8-5.5 22.9z" fill="#E42D6C" p-id="1519"></path><path d="M512 678.1m-281.5 0a281.5 281.5 0 1 0 563 0 281.5 281.5 0 1 0-563 0Z" fill="#E2E2E2" p-id="1520"></path><path d="M512 469.1c-113.1 0-204.7 91.7-204.7 204.7 0 113.1 91.7 204.7 204.7 204.7 113.1 0 204.7-91.7 204.7-204.7 0-113-91.6-204.7-204.7-204.7z" fill="#CFCFCF" p-id="1521"></path><path d="M518.4 325c-6.4 0-11.5-5.2-11.5-11.5V147.1c0-6.4 5.2-11.5 11.5-11.5s11.5 5.2 11.5 11.5v166.4c0 6.3-5.1 11.5-11.5 11.5z" fill="#FFFEFF" p-id="1522"></path><path d="M606 492.1L397.2 843.4c32.8 22.2 72.3 35.2 114.8 35.2 113.1 0 204.7-91.7 204.7-204.7 0-79.2-45-147.7-110.7-181.8z" fill="#E0E0E0" p-id="1523"></path><path d="M512 890.1c-119.2 0-216.3-97-216.3-216.3 0-119.3 97-216.3 216.3-216.3 119.3 0 216.3 97 216.3 216.3 0 119.3-97 216.3-216.3 216.3z m0-409.4c-106.5 0-193.2 86.7-193.2 193.2S405.5 867.1 512 867.1s193.2-86.7 193.2-193.2S618.5 480.7 512 480.7z" fill="#BEBCBD" p-id="1524"></path><path d="M560.8 578.6c13.5 12.3 20.3 28.2 20.3 47.6 0 18.6-7.2 35.9-21.5 51.9-8 8.6-23.1 20.4-45.5 35.3-22.3 14.7-35.9 27.6-40.8 38.7h108.1v31.6H428.5c0-22.5 7.3-42 21.8-58.3 8-9.2 24.8-22.6 50.4-40.2 13.3-9.2 23.3-17.4 30.1-24.6 9.6-10.8 14.4-22.4 14.4-34.7 0-11.9-3.2-20.8-9.5-26.7-6.3-5.7-15.9-8.6-28.6-8.6-13.5 0-23.6 4.6-30.4 13.8-6.8 8.6-10.4 21.6-11.1 39h-35.9c0.4-24.6 7.6-44.3 21.5-59.3 14.5-16 33.6-23.9 57.1-23.9 21.3-0.1 38.8 6.1 52.5 18.4z" fill="#BEBCBD" p-id="1525"></path><path d="M573.6 578.6c13.5 12.3 20.3 28.2 20.3 47.6 0 18.6-7.2 35.9-21.5 51.9-8 8.6-23.1 20.4-45.5 35.3-22.3 14.7-35.9 27.6-40.8 38.7h108.1v31.6H441.3c0-22.5 7.2-42 21.8-58.3 8-9.2 24.8-22.6 50.4-40.2 13.3-9.2 23.3-17.4 30.1-24.6 9.6-10.8 14.4-22.4 14.4-34.7 0-11.9-3.2-20.8-9.5-26.7-6.3-5.7-15.9-8.6-28.6-8.6-13.5 0-23.7 4.6-30.4 13.8-6.8 8.6-10.4 21.6-11.1 39h-35.9c0.4-24.6 7.6-44.3 21.5-59.3 14.5-16 33.6-23.9 57.1-23.9 21.3-0.1 38.8 6.1 52.5 18.4z" fill="#FFFEFF" p-id="1526"></path></svg>