<?xml version="1.0" standalone="no"?><!DOCTYPE svg PUBLIC "-//W3C//DTD SVG 1.1//EN" "http://www.w3.org/Graphics/SVG/1.1/DTD/svg11.dtd"><svg t="1496069048949" class="icon" style="" viewBox="0 0 1024 1024" version="1.1" xmlns="http://www.w3.org/2000/svg" p-id="1403" xmlns:xlink="http://www.w3.org/1999/xlink" width="200" height="200"><defs><style type="text/css"></style></defs><path d="M724.1 279.7l-82.8 165.6c-8.7 17.3-26.4 28.3-45.8 28.3h-167c-19.4 0-37.1-11-45.8-28.3l-82.8-165.6c-3.6-7.1-5.4-14.9-5.4-22.9V115.4c0-28.3 22.9-51.2 51.2-51.2h332.6c28.3 0 51.2 22.9 51.2 51.2v141.4c0 8-1.9 15.8-5.4 22.9z" fill="#E42D6C" p-id="1404"></path><path d="M512 678.3m-281.4 0a281.4 281.4 0 1 0 562.8 0 281.4 281.4 0 1 0-562.8 0Z" fill="#F8CB86" p-id="1405"></path><path d="M512 469.4c-113 0-204.7 91.6-204.7 204.7S399 878.7 512 878.7c113 0 204.7-91.6 204.7-204.7S625 469.4 512 469.4z" fill="#F1AD59" p-id="1406"></path><path d="M518.4 325.2c-6.4 0-11.5-5.2-11.5-11.5V147.4c0-6.4 5.2-11.5 11.5-11.5 6.4 0 11.5 5.2 11.5 11.5v166.3c0 6.4-5.1 11.5-11.5 11.5z" fill="#FFFEFF" p-id="1407"></path><path d="M606 492.3L397.2 843.5c32.7 22.2 72.3 35.2 114.8 35.2 113.1 0 204.7-91.6 204.7-204.7 0-79.1-45-147.6-110.7-181.7z" fill="#FCCB95" p-id="1408"></path><path d="M512 890.2c-119.2 0-216.2-97-216.2-216.2 0-119.2 97-216.2 216.2-216.2 119.2 0 216.2 97 216.2 216.2 0 119.2-97 216.2-216.2 216.2z m0-409.3c-106.5 0-193.2 86.7-193.2 193.2S405.5 867.2 512 867.2 705.2 780.5 705.2 674 618.5 480.9 512 480.9z" fill="#D4923D" p-id="1409"></path><path d="M560.8 576.3c13.3 10.8 20 25.7 20 44.5 0 23.9-12.2 39.9-36.5 47.9 13.3 4.1 23.2 10 29.8 17.8 7.4 8.2 11.1 18.8 11.1 31.9 0 20.3-7.1 36.8-21.2 49.7-14.9 13.3-34.3 20-58 20-22.7 0-41-5.8-55-17.5-15.4-12.9-23.9-31.7-25.8-56.5h36.5c0.6 14.3 5.1 25.3 13.5 32.9 7.8 7.2 17.9 10.7 30.4 10.7 13.7 0 24.7-3.9 32.9-11.7 7.2-7.2 10.7-15.9 10.7-26.1 0-12.5-3.8-21.7-11.4-27.6-7.2-5.9-17.9-8.9-32.2-8.9h-15.4v-27h15.4c12.9 0 22.7-2.8 29.5-8.3 6.5-5.5 9.8-13.7 9.8-24.6 0-10.6-3-18.7-8.9-24.2-6.3-5.5-15.9-8.3-28.6-8.3-12.9 0-22.8 3.2-29.8 9.5-7.4 6.3-11.7 16.2-12.9 29.5h-35.3c1.8-22.3 10-39.5 24.6-51.6 13.5-12.1 31.2-18.1 53.1-18.1 22.5 0 40.4 5.4 53.7 16z" fill="#D4923D" p-id="1410"></path><path d="M573.6 576.3c13.3 10.8 19.9 25.7 19.9 44.5 0 23.9-12.2 39.9-36.5 47.9 13.3 4.1 23.2 10 29.8 17.8 7.4 8.2 11.1 18.8 11.1 31.9 0 20.3-7.1 36.8-21.2 49.7-14.9 13.3-34.3 20-58 20-22.7 0-41-5.8-55-17.5-15.4-12.9-23.9-31.7-25.8-56.5h36.5c0.6 14.3 5.1 25.3 13.5 32.9 7.8 7.2 17.9 10.7 30.4 10.7 13.7 0 24.7-3.9 32.9-11.7 7.2-7.2 10.7-15.9 10.7-26.1 0-12.5-3.8-21.7-11.3-27.6-7.2-5.9-17.9-8.9-32.2-8.9H503v-27h15.4c12.9 0 22.7-2.8 29.5-8.3 6.5-5.5 9.8-13.7 9.8-24.6 0-10.6-3-18.7-8.9-24.2-6.3-5.5-15.9-8.3-28.6-8.3-12.9 0-22.8 3.2-29.8 9.5-7.4 6.3-11.7 16.2-12.9 29.5h-35.3c1.8-22.3 10-39.5 24.6-51.6 13.5-12.1 31.2-18.1 53.1-18.1 22.5 0 40.4 5.4 53.7 16z" fill="#FFFEFF" p-id="1411"></path></svg>